<svg width="8" height="14" viewBox="0 0 8 14" fill="none" xmlns="http://www.w3.org/2000/svg">
<path d="M0.833484 7.44008L6.16681 13.4401C6.2836 13.5725 6.44817 13.6532 6.6244 13.6645C6.80063 13.6757 6.97413 13.6166 7.10681 13.5001C7.23927 13.3833 7.31998 13.2187 7.33123 13.0425C7.34247 12.8663 7.28334 12.6928 7.16681 12.5601L2.22681 7.00008L7.16681 1.44008C7.27456 1.3063 7.32652 1.13608 7.31184 0.964931C7.29716 0.79378 7.21699 0.634899 7.08803 0.521416C6.95907 0.407934 6.79129 0.348609 6.61966 0.355811C6.44803 0.363014 6.2858 0.436188 6.16681 0.560077L0.833484 6.56008C0.726604 6.68174 0.667661 6.83814 0.667661 7.00008C0.667661 7.16201 0.726604 7.31842 0.833484 7.44008Z" fill="#3F51B5"/>
</svg>
