<svg width="121" height="24" viewBox="0 0 121 24" fill="none" xmlns="http://www.w3.org/2000/svg">
<path fill-rule="evenodd" clip-rule="evenodd" d="M93.7039 23.7408C94.904 23.7408 95.9775 23.6002 96.9244 23.3189C97.8713 23.0377 98.6668 22.6461 99.3109 22.1443C99.9549 21.6425 100.489 21.0276 100.913 20.2996C101.337 19.5717 101.642 18.7776 101.829 17.9173C102.017 17.057 102.11 16.114 102.11 15.0882V0.264706H98.3282V2.00184H98.2621C97.5795 1.3511 96.795 0.854779 95.9087 0.512868C95.0224 0.170956 94.1003 0 93.1424 0C91.634 0 90.2798 0.358456 89.0796 1.07537C87.8795 1.79228 86.9464 2.78768 86.2803 4.06158C85.6142 5.33548 85.2811 6.76654 85.2811 8.35478C85.2811 9.96507 85.6307 11.3934 86.3299 12.6397C87.029 13.886 87.9896 14.8428 89.2118 15.5101C90.4339 16.1774 91.8102 16.511 93.3406 16.511C95.3885 16.511 97.0565 15.8382 98.3447 14.4926H98.4108V16.2463C98.4108 17.4154 97.9814 18.386 97.1226 19.1581C96.2638 19.9301 95.0527 20.3162 93.4892 20.3162C92.4212 20.3162 91.4826 20.1838 90.6734 19.9191C89.8641 19.6544 88.931 19.2408 87.874 18.6783L86.9822 22.0202C87.9071 22.5717 88.9475 22.9963 90.1036 23.2941C91.2597 23.5919 92.4598 23.7408 93.7039 23.7408ZM15.0142 8.55331V16.8088H11.2322V8.18934C11.2322 5.03493 10.1367 3.45772 7.94567 3.45772C6.7896 3.45772 5.83997 3.91268 5.09679 4.82261C4.3536 5.73254 3.98201 6.9761 3.98201 8.55331V16.7923H0.200012V0.264706H3.98201V2.54779H4.03155C4.70317 1.73162 5.48765 1.1057 6.38498 0.670037C7.28231 0.234375 8.21542 0.0165441 9.18431 0.0165441C11.4854 0.0165441 13.126 0.931985 14.1059 2.76287H14.1719C14.8656 1.86949 15.7189 1.18842 16.7318 0.719669C17.7447 0.250919 18.8623 0.0165441 20.0844 0.0165441C21.9451 0.0165441 23.3764 0.61489 24.3784 1.81158C25.3803 3.00827 25.8812 4.81434 25.8812 7.22978V16.8088H22.0992V8.18934C22.0992 5.03493 21.0203 3.45772 18.8623 3.45772C17.7612 3.45772 16.8446 3.91268 16.1125 4.82261C15.3803 5.73254 15.0142 6.9761 15.0142 8.55331ZM41.3671 14.5754C40.1119 16.2298 38.3613 17.057 36.1152 17.057C34.9812 17.057 33.9214 16.8557 32.936 16.4531C31.9506 16.0506 31.1056 15.4853 30.4009 14.7574C29.6963 14.0294 29.1403 13.136 28.7329 12.0772C28.3255 11.0184 28.1218 9.86029 28.1218 8.60294C28.1218 7.37868 28.3255 6.23162 28.7329 5.16177C29.1403 4.09191 29.6963 3.18199 30.4009 2.43199C31.1056 1.68199 31.9479 1.09191 32.9278 0.661765C33.9077 0.231618 34.9591 0.0165441 36.0822 0.0165441C38.2292 0.0165441 39.9302 0.761029 41.1854 2.25H41.2514V0.264706H45.0334V16.7923H41.4166V14.5754H41.3671ZM36.7098 13.6158C35.3115 13.6158 34.1719 13.1498 33.2911 12.2178C32.4103 11.2858 31.9699 10.0864 31.9699 8.61948C31.9699 7.06434 32.424 5.81526 33.3324 4.87224C34.2407 3.92923 35.372 3.45772 36.7263 3.45772C38.0695 3.45772 39.1843 3.95129 40.0706 4.93842C40.9569 5.92555 41.4001 7.15257 41.4001 8.61948C41.4001 10.0864 40.9459 11.2858 40.0376 12.2178C39.1292 13.1498 38.02 13.6158 36.7098 13.6158ZM63.8223 7.06434V16.8088H60.0403V8.04044C60.0403 7.18015 59.9632 6.45221 59.8091 5.85662C59.655 5.26103 59.4182 4.78952 59.0989 4.4421C58.7796 4.09467 58.4081 3.84375 57.9842 3.68934C57.5603 3.53493 57.051 3.45772 56.4565 3.45772C55.1573 3.45772 54.1196 3.8989 53.3434 4.78125C52.5672 5.6636 52.179 6.8989 52.179 8.48713V16.7923H48.397V0.264706H52.179V2.53125H52.2286C52.9222 1.71507 53.748 1.09191 54.7059 0.661765C55.6638 0.231618 56.6822 0.0165441 57.7612 0.0165441C59.655 0.0165441 61.1386 0.592831 62.2121 1.7454C63.2856 2.89798 63.8223 4.67096 63.8223 7.06434ZM74.0397 17.057C76.2858 17.057 78.0364 16.2298 79.2916 14.5754H79.3411V16.7923H82.958V0.264706H79.176V2.25H79.1099C77.8548 0.761029 76.1537 0.0165441 74.0067 0.0165441C72.8837 0.0165441 71.8322 0.231618 70.8523 0.661765C69.8724 1.09191 69.0301 1.68199 68.3255 2.43199C67.6208 3.18199 67.0648 4.09191 66.6574 5.16177C66.2501 6.23162 66.0464 7.37868 66.0464 8.60294C66.0464 9.86029 66.2501 11.0184 66.6574 12.0772C67.0648 13.136 67.6208 14.0294 68.3255 14.7574C69.0301 15.4853 69.8752 16.0506 70.8606 16.4531C71.846 16.8557 72.9057 17.057 74.0397 17.057ZM71.2156 12.2178C72.0965 13.1498 73.236 13.6158 74.6343 13.6158C75.9445 13.6158 77.0538 13.1498 77.9621 12.2178C78.8705 11.2858 79.3246 10.0864 79.3246 8.61948C79.3246 7.15257 78.8815 5.92555 77.9952 4.93842C77.1088 3.95129 75.9941 3.45772 74.6508 3.45772C73.2966 3.45772 72.1653 3.92923 71.2569 4.87224C70.3486 5.81526 69.8944 7.06434 69.8944 8.61948C69.8944 10.0864 70.3348 11.2858 71.2156 12.2178ZM90.4587 11.7215C91.345 12.5873 92.4708 13.0202 93.836 13.0202C95.2123 13.0202 96.3326 12.5653 97.1969 11.6553C98.0612 10.7454 98.4933 9.59007 98.4933 8.18934C98.4933 6.79963 98.0502 5.66912 97.1639 4.79779C96.2775 3.92647 95.1683 3.49081 93.836 3.49081C92.4377 3.49081 91.3037 3.93199 90.4339 4.81434C89.5641 5.69669 89.1292 6.83824 89.1292 8.23897C89.1292 9.69485 89.5723 10.8557 90.4587 11.7215ZM112.922 17.057C114.464 17.057 115.821 16.7757 116.993 16.2132C118.166 15.6507 119.126 14.8897 119.875 13.9301L117.233 11.6636C116.198 12.9651 114.827 13.6158 113.12 13.6158C111.909 13.6158 110.883 13.2794 110.04 12.6066C109.198 11.9338 108.656 11.0129 108.414 9.84375H120.437C120.503 9.44669 120.536 8.94485 120.536 8.33824C120.536 6.73897 120.211 5.31066 119.561 4.05331C118.912 2.79596 117.976 1.80882 116.754 1.09191C115.532 0.375 114.122 0.0165441 112.526 0.0165441C111.392 0.0165441 110.329 0.223346 109.338 0.636949C108.347 1.05055 107.494 1.62684 106.779 2.36581C106.063 3.10478 105.501 4.00368 105.094 5.0625C104.687 6.12132 104.483 7.2739 104.483 8.52022C104.483 10.2077 104.852 11.705 105.589 13.0119C106.327 14.3189 107.335 15.3199 108.612 16.0147C109.889 16.7096 111.326 17.057 112.922 17.057ZM108.48 6.78309H116.737C116.495 5.75735 116.03 4.94669 115.342 4.3511C114.654 3.75551 113.781 3.45772 112.724 3.45772C111.678 3.45772 110.775 3.74724 110.015 4.32629C109.256 4.90533 108.744 5.72426 108.48 6.78309Z" fill="#242D52"/>
</svg>
